<svg id="Camada_1" data-name="Camada 1" xmlns="http://www.w3.org/2000/svg" viewBox="0 0 558.58 235"><defs><style>.cls-1{fill:#fff;}.cls-2{fill:#eb5d33;}</style></defs><title>MinhaFeira-BackgroundSVG</title><circle class="cls-1" cx="117.5" cy="117.5" r="117"/><path class="cls-1" d="M313.5,384a116.49,116.49,0,1,1-82.38,34.12A115.76,115.76,0,0,1,313.5,384m0-1A117.5,117.5,0,1,0,431,500.5,117.5,117.5,0,0,0,313.5,383Z" transform="translate(-196 -383)"/><path class="cls-2" d="M296.88,555.35H272.94v-4.42h3.35a9.85,9.85,0,0,1-2.94-3,6.63,6.63,0,0,1-.88-3.35,7.06,7.06,0,0,1,1-3.92,5,5,0,0,1,3.08-2.15,7,7,0,0,1-4.13-6.79,6.77,6.77,0,0,1,2.28-5.59,10.07,10.07,0,0,1,6.49-1.85h15.64v4.42H282a6.86,6.86,0,0,0-4.15,1,3.5,3.5,0,0,0-1.39,3,4,4,0,0,0,1.37,3.18,6.39,6.39,0,0,0,2.86,1.34,20.89,20.89,0,0,0,4.45.39h11.73V542H282a6.72,6.72,0,0,0-4.1,1.08,3.56,3.56,0,0,0-1.44,3,4.1,4.1,0,0,0,.38,1.77,3.79,3.79,0,0,0,1.12,1.37,6.4,6.4,0,0,0,2.71,1.29,20.3,20.3,0,0,0,4.47.4h11.73Z" transform="translate(-196 -383)"/><path class="cls-2" d="M268.73,519a3,3,0,1,1,.86-2.09A2.87,2.87,0,0,1,268.73,519Zm28.15-4.3v4.42H272.94v-4.42Z" transform="translate(-196 -383)"/><path class="cls-2" d="M296.88,509.42H272.94V505h3.35a10.11,10.11,0,0,1-3-3,6.63,6.63,0,0,1-.86-3.37q0-5,3.87-6.8a9,9,0,0,1,2.9-.84,32.76,32.76,0,0,1,3.54-.16h14.1v4.42H282.74q-3.64,0-5.07,1.17a4,4,0,0,0-1.2,3.13,4.6,4.6,0,0,0,1.63,3.78,6.22,6.22,0,0,0,2.79,1.26,23.12,23.12,0,0,0,4.77.39h11.22Z" transform="translate(-196 -383)"/><path class="cls-2" d="M296.88,485.67H264.09v-4.42h12.2a9.52,9.52,0,0,1-3-3,6.73,6.73,0,0,1-.86-3.39c0-3.3,1.29-5.56,3.87-6.8a9,9,0,0,1,2.9-.84,32.76,32.76,0,0,1,3.54-.16h14.1v4.42H282.74a14,14,0,0,0-3.11.28,4.43,4.43,0,0,0-2,.93,3.85,3.85,0,0,0-1.2,3.13,4.55,4.55,0,0,0,1.63,3.74,6.22,6.22,0,0,0,2.79,1.26,23.12,23.12,0,0,0,4.77.39h11.22Z" transform="translate(-196 -383)"/><path class="cls-2" d="M295.48,460.87a6.61,6.61,0,0,1-5.09,2,6.23,6.23,0,0,1-5.2-2.41,12.35,12.35,0,0,1-2.11-5.18l-1.5-7.32a5.61,5.61,0,0,0-3.82,1.25,4.58,4.58,0,0,0-1.42,3.53,4.84,4.84,0,0,0,4,4.87V462a8.81,8.81,0,0,1-5.85-3.18,9.6,9.6,0,0,1-2.06-6.11,11.07,11.07,0,0,1,.62-3.71,8,8,0,0,1,1.83-3,7.09,7.09,0,0,1,3.74-2,25.94,25.94,0,0,1,4.94-.42h13.28V448h-3.53a7.35,7.35,0,0,1,2.62,2.33,9.05,9.05,0,0,1,1.38,5.23A7.46,7.46,0,0,1,295.48,460.87Zm-2.81-9.4a6.09,6.09,0,0,0-2.86-2.76,11.64,11.64,0,0,0-4.62-.78l1.33,6.31a7,7,0,0,0,1.55,3.38,3.09,3.09,0,0,0,2.19.84,2.86,2.86,0,0,0,2.34-1,4.25,4.25,0,0,0,.84-2.76A6.74,6.74,0,0,0,292.67,451.47Z" transform="translate(-196 -383)"/><path class="cls-2" d="M350.23,565.49V480.05H334.3V457.21h15.93V446.45q0-13.05,7.88-20.25t22.46-7.2h17.09v22.65h-10q-8.06,0-8.06,9v6.53h18.05v22.84H379.61v85.44Z" transform="translate(-196 -383)"/><path class="cls-2" d="M431.93,560.6a49.79,49.79,0,0,1-19.68-19.88,58.69,58.69,0,0,1-6.91-28.6,65.68,65.68,0,0,1,6-27.75,50.36,50.36,0,0,1,18.44-21.31q12.38-8.16,30.43-8.16A62.36,62.36,0,0,1,487.61,461a47.27,47.27,0,0,1,20.25,18.82q7.68,12.76,7.68,32v5.76H435.67a28.63,28.63,0,0,0,1.73,7.2,27.75,27.75,0,0,0,3.07,6q7.29,11.91,22.08,11.9a23.59,23.59,0,0,0,13.63-3.93,22.06,22.06,0,0,0,8.26-10.08h29.38a55.71,55.71,0,0,1-18.24,28.22q-13.26,10.95-34.37,10.95Q444.7,567.8,431.93,560.6ZM486,496.18q-1.35-6.33-4.61-9.79-6.92-8.83-20-8.83t-20.16,8.83a21.19,21.19,0,0,0-4.61,9.79Z" transform="translate(-196 -383)"/><path class="cls-2" d="M535.9,443.29a15.45,15.45,0,0,1,0-22.76,18.79,18.79,0,0,1,24.19,0,15.57,15.57,0,0,1,.09,22.76,19.25,19.25,0,0,1-24.28,0Zm26.68,122.2H533.4V457.21h29.18Z" transform="translate(-196 -383)"/><path class="cls-2" d="M584.85,565.49V457.21H614v12.28q5.57-8.06,12.57-11.32a39,39,0,0,1,16.61-3.27h4v27.84h-6.14q-12.29,0-18.82,6.15a23.81,23.81,0,0,0-6.33,11Q614,506.74,614,517.69v47.8Z" transform="translate(-196 -383)"/><path class="cls-2" d="M667,559.25q-10-8.54-10-23.9,0-16.51,13.06-25.34,8.45-5.76,25.34-8.84l30.15-5.57q-.2-9-4.8-13.82-4.23-4.61-12.67-4.61a17.79,17.79,0,0,0-11.71,4.13,18.49,18.49,0,0,0-6.34,11.23h-29Q663,480.05,670,471.6A43.18,43.18,0,0,1,687.09,459a55.48,55.48,0,0,1,21.22-4.13,61.76,61.76,0,0,1,18.43,2.69,40.26,40.26,0,0,1,14.78,8.06,31.94,31.94,0,0,1,8.93,12.48,52.59,52.59,0,0,1,3.46,14.5q.68,7.39.67,19.1v53.76H725.4v-14a22.64,22.64,0,0,1-8.64,10.37q-8.84,5.94-24.2,5.95Q677,567.8,667,559.25Zm46.08-16.8q7.29-3.45,10-9.41t3.08-16.51L703.32,521a47.87,47.87,0,0,0-8.74,2.5,18.44,18.44,0,0,0-5.28,3.26,10.5,10.5,0,0,0-3.26,7.68,9.28,9.28,0,0,0,4,8.16,17.83,17.83,0,0,0,10.37,2.78A28.72,28.72,0,0,0,713.11,542.45Z" transform="translate(-196 -383)"/></svg>