<svg width="118" height="48" viewBox="0 0 118 48" fill="none" xmlns="http://www.w3.org/2000/svg">
<g clip-path="url(#clip0_440_3251)">
<path d="M24.8219 48C38.5306 48 49.6437 37.2548 49.6437 24C49.6437 10.7452 38.5306 0 24.8219 0C11.1131 0 0 10.7452 0 24C0 37.2548 11.1131 48 24.8219 48Z" fill="#F4D641"/>
<path d="M21.311 35.2034H16.2536V34.3006H16.9613C16.7111 34.1419 16.4993 33.9329 16.3402 33.6879C16.2167 33.4797 16.1525 33.2436 16.1543 33.0036C16.1425 32.7225 16.2159 32.4442 16.3656 32.2029C16.5152 31.9804 16.7486 31.8228 17.0162 31.7638C16.7425 31.6454 16.5125 31.4494 16.3567 31.2017C16.2009 30.954 16.1266 30.6663 16.1438 30.3769C16.1272 30.1635 16.1621 29.9493 16.2457 29.7512C16.3293 29.5531 16.4593 29.3764 16.6254 29.2351C17.0239 28.9604 17.5081 28.827 17.9964 28.8572H21.3004V29.76H18.1676C17.8603 29.7362 17.5532 29.8078 17.2909 29.9643C17.1935 30.0351 17.1157 30.1281 17.0645 30.235C17.0133 30.3419 16.9902 30.4594 16.9972 30.5771C16.9921 30.6994 17.0154 30.8213 17.0655 30.9337C17.1156 31.0461 17.1911 31.1462 17.2866 31.2266C17.4612 31.3653 17.6689 31.4594 17.8908 31.5003C18.2003 31.5593 18.5155 31.586 18.8309 31.58H21.3088V32.4766H18.1676C17.8618 32.4579 17.5579 32.5353 17.3014 32.6972C17.2029 32.7677 17.1237 32.8603 17.0707 32.9671C17.0177 33.0739 16.9925 33.1916 16.9972 33.31C16.9958 33.4348 17.0232 33.5583 17.0775 33.6715C17.1324 33.7815 17.2135 33.8774 17.3141 33.9514C17.4806 34.0818 17.6769 34.1721 17.8866 34.2149C18.1973 34.2757 18.514 34.3031 18.8309 34.2965H21.3088L21.311 35.2034Z" fill="#EB5D33"/>
<path d="M15.3643 27.7788C15.2613 27.8802 15.125 27.9438 14.9789 27.9587C14.8327 27.9737 14.6857 27.939 14.563 27.8607C14.4404 27.7824 14.3497 27.6654 14.3065 27.5295C14.2632 27.3937 14.2702 27.2476 14.3261 27.1162C14.382 26.9847 14.4835 26.8762 14.613 26.8091C14.7426 26.7421 14.8923 26.7206 15.0364 26.7485C15.1805 26.7763 15.3102 26.8517 15.4031 26.9618C15.4961 27.0719 15.5465 27.2098 15.5459 27.3519C15.5471 27.4312 15.5316 27.51 15.5004 27.5834C15.4692 27.6567 15.4229 27.7232 15.3643 27.7788ZM21.3109 26.9005V27.8033H16.2536V26.9005H21.3109Z" fill="#EB5D33"/>
<path d="M21.3109 25.822H16.2535V24.9192H16.9612C16.7075 24.7606 16.4915 24.5518 16.3275 24.3065C16.2046 24.0967 16.1419 23.8591 16.1458 23.6181C16.1458 22.9373 16.4183 22.4743 16.9633 22.2292C17.1561 22.139 17.3632 22.081 17.576 22.0576C17.8244 22.0337 18.0741 22.0228 18.3238 22.0249H21.3024V22.9277H18.3238C17.8112 22.9277 17.4541 23.0074 17.2528 23.1667C17.1652 23.2492 17.0972 23.3491 17.0534 23.4595C17.0096 23.5698 16.9912 23.6881 16.9993 23.806C16.9907 23.9517 17.0173 24.0974 17.0771 24.2314C17.1369 24.3654 17.2281 24.4841 17.3436 24.5781C17.5148 24.71 17.7174 24.7985 17.933 24.8355C18.2651 24.8957 18.6028 24.9224 18.9406 24.9151H21.3109V25.822Z" fill="#EB5D33"/>
<path d="M21.3109 20.9709H14.384V20.0681H16.9613C16.7051 19.9125 16.4884 19.7031 16.3275 19.4553C16.2049 19.244 16.1422 19.0051 16.1459 18.7629C16.1459 18.0888 16.4184 17.6272 16.9634 17.374C17.1562 17.2838 17.3633 17.2258 17.576 17.2024C17.8245 17.1785 18.0741 17.1675 18.3238 17.1697H21.3025V18.0725H18.3238C18.1033 18.0678 17.883 18.087 17.6669 18.1297C17.5117 18.1576 17.3664 18.2229 17.2444 18.3197C17.155 18.4009 17.0858 18.5005 17.0419 18.6112C16.998 18.722 16.9805 18.8408 16.9909 18.959C16.9828 19.1034 17.0097 19.2477 17.0695 19.3803C17.1293 19.513 17.2203 19.6303 17.3352 19.7229C17.5064 19.8548 17.709 19.9433 17.9246 19.9803C18.2567 20.0404 18.5944 20.0671 18.9322 20.0599H21.3025L21.3109 20.9709Z" fill="#EB5D33"/>
<path d="M21.0151 15.9054C20.8764 16.0438 20.7087 16.1518 20.5232 16.2222C20.3378 16.2927 20.1389 16.324 19.9399 16.3139C19.7294 16.3229 19.5197 16.2829 19.3286 16.1972C19.1374 16.1115 18.9703 15.9828 18.8414 15.8217C18.6111 15.5066 18.4586 15.1446 18.3956 14.7636L18.0787 13.2685C17.7864 13.2543 17.4989 13.3453 17.2718 13.5238C17.1713 13.6162 17.0924 13.7284 17.0407 13.8528C16.9889 13.9772 16.9654 14.1109 16.9718 14.2448C16.9666 14.4809 17.0489 14.7109 17.2039 14.8934C17.3589 15.0758 17.5763 15.1986 17.8168 15.2396V16.1362C17.3328 16.0844 16.8892 15.8512 16.581 15.4867C16.2915 15.1317 16.1377 14.6908 16.1458 14.2387C16.1444 13.9807 16.1887 13.7244 16.2768 13.4809C16.3571 13.2515 16.4891 13.0422 16.6634 12.8682C16.8775 12.6572 17.1532 12.5147 17.4534 12.4596C17.7977 12.3989 18.1471 12.3702 18.497 12.3738H21.3024V13.2767H20.5567C20.7782 13.3898 20.9681 13.5531 21.1102 13.7526C21.3177 14.0716 21.4194 14.4443 21.4017 14.8208C21.4239 15.2173 21.2852 15.6064 21.0151 15.9054ZM20.4215 13.9854C20.291 13.7375 20.0783 13.539 19.8173 13.4217C19.5065 13.3052 19.1745 13.251 18.8414 13.2624L19.1223 14.5512C19.1651 14.8057 19.2782 15.0442 19.4498 15.2416C19.5747 15.3554 19.7409 15.417 19.9124 15.4132C20.0055 15.4183 20.0986 15.4026 20.1843 15.3671C20.2701 15.3317 20.3462 15.2775 20.4067 15.2089C20.532 15.0468 20.5948 14.8473 20.5842 14.6452C20.5877 14.4156 20.5318 14.1888 20.4215 13.9854Z" fill="#EB5D33"/>
<path d="M32.581 37.2746V19.8231H29.2158V15.1579H32.581V12.9601C32.581 11.1831 33.1359 9.80434 34.2457 8.82391C35.3554 7.84349 36.937 7.35327 38.9904 7.35327H42.6006V11.9797H40.4881C39.353 11.9797 38.7854 12.5924 38.7854 13.818V15.1517H42.5985V19.8169H38.7876V37.2685L32.581 37.2746Z" fill="#EB5D33"/>
<path d="M49.8402 36.2757C48.0816 35.3342 46.6388 33.925 45.6828 32.2151C44.6911 30.4193 44.1888 28.4089 44.2231 26.3734C44.2131 24.4173 44.6457 22.4828 45.4906 20.7054C46.3342 18.9256 47.6856 17.4156 49.386 16.3527C51.1295 15.2415 53.2723 14.686 55.8144 14.686C57.8166 14.6705 59.7962 15.0967 61.6026 15.9319C63.3929 16.7725 64.8825 18.1111 65.8804 19.776C66.962 21.5135 67.5028 23.6923 67.5028 26.3122V27.4887H50.6303C50.6858 27.9921 50.8086 28.4865 50.9958 28.9593C51.1596 29.3918 51.3774 29.8033 51.6443 30.1849C52.671 31.8066 54.2258 32.6168 56.3087 32.6155C57.3309 32.6399 58.3362 32.3596 59.188 31.8128C59.9708 31.312 60.579 30.5944 60.933 29.7539H67.1395C66.4993 32.0129 65.1536 34.0258 63.2863 35.518C61.4188 37.009 58.9986 37.7546 56.0256 37.7546C53.7005 37.7491 51.6387 37.2562 49.8402 36.2757ZM61.2625 23.1176C61.0724 22.2557 60.7478 21.5891 60.2886 21.118C59.3141 19.9156 57.9057 19.3144 56.0636 19.3144C54.2215 19.3144 52.8019 19.9156 51.8048 21.118C51.3067 21.6918 50.9711 22.3808 50.831 23.1176H61.2625Z" fill="#EB5D33"/>
<path d="M71.8039 12.3146C71.4709 12.019 71.2051 11.6597 71.0233 11.2596C70.8414 10.8595 70.7476 10.4272 70.7476 9.99015C70.7476 9.5531 70.8414 9.12082 71.0233 8.7207C71.2051 8.32057 71.4709 7.96132 71.8039 7.66572C72.5193 7.0839 73.4241 6.76489 74.3589 6.76489C75.2938 6.76489 76.1986 7.0839 76.914 7.66572C77.2448 7.962 77.509 8.32088 77.6903 8.72005C77.8716 9.11923 77.9661 9.55019 77.9679 9.98615C77.9696 10.4221 77.8787 10.8538 77.7007 11.2543C77.5227 11.6549 77.2613 12.0158 76.933 12.3146C76.2081 12.8841 75.3025 13.1951 74.3684 13.1951C73.4344 13.1951 72.5288 12.8841 71.8039 12.3146ZM77.44 37.2746H71.2757V15.1578H77.44V37.2746Z" fill="#EB5D33"/>
<path d="M82.1445 37.2746V15.1578H88.3025V17.666C89.0869 16.5685 89.9721 15.7978 90.9579 15.3539C92.0628 14.8855 93.2607 14.6575 94.4667 14.686H95.3117V20.3724H94.0147C92.2838 20.3724 90.9586 20.7912 90.0389 21.6286C89.3912 22.2468 88.929 23.0233 88.7017 23.8754C88.4356 24.8082 88.3025 26.0201 88.3025 27.5112V37.2746H82.1445Z" fill="#EB5D33"/>
<path d="M99.4987 36.0001C98.0904 34.8372 97.3862 33.21 97.3862 31.1184C97.3862 28.8702 98.3059 27.145 100.145 25.9426C101.335 25.1582 103.12 24.5564 105.498 24.137L111.867 22.9993C111.839 21.7737 111.501 20.8328 110.853 20.1765C110.258 19.5487 109.366 19.2348 108.177 19.2348C107.274 19.2196 106.396 19.5191 105.703 20.0784C104.986 20.6628 104.511 21.477 104.364 22.3722H98.2376C98.515 20.6728 99.1466 19.2478 100.132 18.0971C101.096 16.9621 102.337 16.0775 103.743 15.5235C105.165 14.9608 106.688 14.6742 108.225 14.6799C109.545 14.6717 110.857 14.857 112.119 15.2294C113.268 15.5593 114.332 16.1203 115.241 16.8757C116.075 17.5645 116.722 18.4395 117.128 19.4248C117.515 20.3735 117.762 21.3707 117.858 22.3865C117.954 23.3928 118.001 24.6932 118 26.2878V37.2685H111.836V34.409C111.464 35.278 110.828 36.0169 110.011 36.5271C108.766 37.336 107.061 37.7411 104.898 37.7424C102.707 37.7451 100.907 37.1644 99.4987 36.0001ZM109.233 32.5686C110.26 32.0988 110.964 31.4582 111.346 30.6466C111.727 29.835 111.944 28.7109 111.996 27.2743L107.171 28.1874C106.541 28.3006 105.922 28.4715 105.325 28.698C104.917 28.8574 104.54 29.0826 104.21 29.3639C103.99 29.566 103.816 29.8094 103.697 30.0792C103.579 30.349 103.519 30.6394 103.521 30.9325C103.502 31.2571 103.57 31.5809 103.718 31.8728C103.866 32.1646 104.089 32.4148 104.366 32.5993C105.018 33.0017 105.783 33.1999 106.557 33.1671C107.486 33.169 108.404 32.9643 109.239 32.5686H109.233Z" fill="#EB5D33"/>
</g>
<defs>
<clipPath id="clip0_440_3251">
<rect width="118" height="48" fill="white"/>
</clipPath>
</defs>
</svg>
